# xmcd CD database file
#
# Track frame offsets:
#	150
#	18224
#	29835
#	49482
#	61414
#	81476
#	99360
#	114704
#	134327
#	146861
#	160723
#	183786
#
# Disc length: 2648 seconds
#
# Revision: 1
# Processed by: cddbd v1.5.2PL0 Copyright (c) Steve Scherf et al.
# Submitted via: CDex 2.02
#
DISCID=a90a560c
DTITLE=Ginny Snowe and John Miller - You Fascinate Me So
DYEAR=2007
DGENRE=Jazz
TTITLE0=You Fascinate Me So
TTITLE1=Devil May Care
TTITLE2=It Might As Well Be Spring
TTITLE3=E luxe so
TTITLE4=Agua de beber
TTITLE5=Quilombo, o el Dorado Negro 
TTITLE6=Ill Wind
TTITLE7=Skylarl
TTITLE8=From This Moment On
TTITLE9=The Look of Love
TTITLE10=Alfie
TTITLE11=I'll Remember April
EXTD=YEAR: 2007
EXTT0=
EXTT1=
EXTT2=
EXTT3=
EXTT4=
EXTT5=
EXTT6=
EXTT7=
EXTT8=
EXTT9=
EXTT10=
EXTT11=
PLAYORDER=
